<?xml version="1.0" encoding="UTF-8"?>
<svg version="1.1" xmlns="http://www.w3.org/2000/svg" width="1419" height="588">
<path d="M0 0 C1.47083038 -0.03636063 1.47083038 -0.03636063 2.97137451 -0.07345581 C12.03954214 -0.28512718 21.1092426 -0.40968017 30.17928314 -0.50775146 C36.27556797 -0.57478439 42.36839231 -0.67042706 48.46289062 -0.83496094 C54.35181517 -0.99325421 60.2375795 -1.07754862 66.12849426 -1.11053467 C68.37112144 -1.13567371 70.61361733 -1.18688488 72.85502625 -1.26495361 C89.95753818 -1.83363881 89.95753818 -1.83363881 94.47367859 1.80998611 C97.46370248 5.34002771 99.32593871 9.23156716 100.95539665 13.53365803 C101.94833384 16.07378856 103.27791589 18.38891483 104.63476562 20.75 C120.44509709 51.34586324 126.9165477 82.62270444 131.66601562 116.3515625 C137.11830682 114.04613942 140.57661677 110.84671909 144.64599609 106.69628906 C145.31677185 106.02434509 145.98754761 105.35240112 146.6786499 104.66009521 C148.88722233 102.44435507 151.08507971 100.21828972 153.28320312 97.9921875 C154.82414822 96.44309907 156.36583678 94.89474987 157.90823364 93.34710693 C161.96566602 89.27257095 166.01445234 85.18955605 170.06103516 81.10424805 C176.52798178 74.57809429 183.00755672 68.06448624 189.48788834 61.55162811 C191.74170421 59.28394181 193.99160446 57.01242848 196.24093628 54.74029541 C197.63628392 53.3349133 199.03171618 51.92961518 200.42724609 50.52441406 C201.35179092 49.58740662 201.35179092 49.58740662 202.29501343 48.63146973 C206.00250779 44.90541137 209.83355381 41.38883317 213.82870674 37.97243881 C215.68690539 36.33313352 217.43176629 34.62074954 219.16601562 32.8515625 C222.11617582 29.85499529 225.20252478 27.08938606 228.39257812 24.3515625 C230.55994392 22.44487644 232.65695079 20.47631247 234.74936867 18.48812485 C236.77958775 16.58498377 238.8614881 14.74339753 240.94529343 12.89929962 C242.04628742 11.90898912 243.13260985 10.90196107 244.19896317 9.87444305 C253.82338344 0.67799122 262.24486738 -1.02223099 275.34872437 -0.92034912 C277.58733275 -0.86751455 279.82590903 -0.81330427 282.06445312 -0.7578125 C284.39471334 -0.73979745 286.72501483 -0.72655252 289.05532837 -0.71783447 C295.14212603 -0.68178137 301.22599674 -0.57883208 307.31170654 -0.46203613 C313.53621634 -0.35588502 319.76113661 -0.31902169 325.98632812 -0.2734375 C335.04203355 -0.19432016 344.09720685 -0.09780576 353.15185547 0.06347656 C354.10652206 0.07716278 355.06118866 0.090849 356.04478455 0.10494995 C356.90796799 0.12222137 357.77115143 0.1394928 358.66049194 0.1572876 C359.791345 0.17733541 359.791345 0.17733541 360.94504356 0.19778824 C362.66601562 0.3515625 362.66601562 0.3515625 363.66601562 1.3515625 C365.34105099 18.62364843 359.96197318 35.17565771 354.60351562 51.3515625 C354.39447601 51.98712067 354.1854364 52.62267883 353.97006226 53.27749634 C351.23207462 61.53965997 348.16986414 69.6417098 344.92547607 77.71815491 C338.09016924 94.76993966 332.27852348 112.07248432 326.62208176 129.54410172 C325.30927276 133.59229706 323.98620155 137.63713753 322.66430664 141.68237305 C319.65363737 150.90179596 316.65767551 160.12595642 313.66601562 169.3515625 C313.28195557 170.53548584 312.89789551 171.71940918 312.50219727 172.93920898 C311.20952846 176.92411664 309.91714967 180.9091183 308.62486267 184.89414978 C273.96573191 291.75212993 273.96573191 291.75212993 251.66601562 336.3515625 C219.65601563 336.3515625 187.64601563 336.3515625 154.66601562 336.3515625 C155.79309961 326.2078066 155.79309961 326.2078066 157.09960938 322.25390625 C157.40962891 321.31232666 157.71964844 320.37074707 158.0390625 319.40063477 C158.5659668 317.86040649 158.5659668 317.86040649 159.10351562 316.2890625 C159.48185547 315.16491943 159.86019531 314.04077637 160.25 312.88256836 C164.0831979 301.69198626 168.28524004 290.64087783 172.46942139 279.57788086 C196.34093804 225.50801726 196.34093804 225.50801726 194.29101562 169.2890625 C192.38389959 167.01519338 191.58092368 166.64105222 188.66601562 166.3515625 C181.18863903 170.36581538 177.04393705 178.56207367 172.91601562 185.6015625 C172.21739332 186.76860259 171.51717576 187.93468908 170.81542969 189.09985352 C169.41322826 191.42917077 168.01634775 193.76154096 166.62304688 196.09619141 C163.95359443 200.53662042 161.1976451 204.91832897 158.41601562 209.2890625 C157.93463135 210.04840088 157.45324707 210.80773926 156.95727539 211.59008789 C156.00159096 213.09755765 155.04530067 214.6046435 154.08837891 216.11132812 C151.67181004 219.91744483 149.26208888 223.72788238 146.85351562 227.5390625 C146.36592773 228.31048584 145.87833984 229.08190918 145.37597656 229.87670898 C140.63959827 237.37852599 135.94198714 244.90443638 131.24414062 252.43041992 C126.86795121 259.43782692 122.4714446 266.43195601 118.04882812 273.41015625 C117.61699219 274.09207031 117.18515625 274.77398437 116.74023438 275.4765625 C116.02625488 276.54789429 116.02625488 276.54789429 115.29785156 277.64086914 C113.94468941 279.88864882 112.86400866 282.05788544 111.77636719 284.43530273 C106.53375502 295.17490709 106.53375502 295.17490709 101.61959839 297.19122314 C95.78492435 298.38892802 89.93536848 297.85611191 84.04101562 297.4140625 C82.29521115 297.34219933 80.54908756 297.27769558 78.80273438 297.22070312 C74.72192342 297.06796262 70.65387808 296.834461 66.58026123 296.55081177 C62.73563539 296.28795167 58.88963369 296.04923534 55.04345703 295.81030273 C54.31930288 295.76520852 53.59514874 295.72011431 52.84905052 295.6736536 C51.12138267 295.56612198 49.39370066 295.45881781 47.66601562 295.3515625 C47.63065201 294.11589035 47.59528839 292.8802182 47.55885315 291.60710144 C47.22305791 279.88418143 46.88485396 268.16133298 46.54437351 256.43854809 C46.36946215 250.41373665 46.19535954 244.38890423 46.02319336 238.36401367 C45.85658991 232.53488217 45.68774694 226.70581922 45.51743889 220.87679482 C45.45328169 218.66802522 45.38989192 216.45923317 45.32733345 214.25041771 C45.12969736 207.28327228 44.91377509 200.31711388 44.66601562 193.3515625 C44.63365185 192.42567448 44.60128807 191.49978645 44.56794357 190.54584122 C44.4709347 187.91448779 44.36015774 185.28412996 44.24389648 182.65356445 C44.20188661 181.49619294 44.20188661 181.49619294 44.15902805 180.31544018 C43.96261302 176.27554873 43.44210268 173.00205978 41.66601562 169.3515625 C31.93727029 173.3494258 27.82432715 188.18834287 23.98777771 197.18460083 C15.94076399 216.46536572 9.25352766 236.18705888 2.97268677 256.10018921 C0.84083384 262.85780325 -1.32512851 269.60454448 -3.49023438 276.3515625 C-3.70145369 277.01039114 -3.912673 277.66921978 -4.13029289 278.34801292 C-7.69630081 289.46416611 -11.37899143 300.53283106 -15.27148438 311.5390625 C-15.50269989 312.19804535 -15.73391541 312.8570282 -15.97213745 313.53598022 C-18.73851597 321.3972681 -21.86217248 328.71357632 -25.33398438 336.3515625 C-56.68398438 336.3515625 -88.03398437 336.3515625 -120.33398438 336.3515625 C-119.62885685 330.71054226 -118.89621772 326.31313945 -117.27929688 321.0078125 C-117.06644547 320.30678406 -116.85359406 319.60575562 -116.6342926 318.88348389 C-115.91762454 316.53682301 -115.18926278 314.19402145 -114.45898438 311.8515625 C-114.20299469 311.02410522 -113.947005 310.19664795 -113.68325806 309.34411621 C-104.55581726 279.89574658 -94.46166832 250.73494104 -84.23632812 221.65234375 C-83.91771317 220.74609756 -83.59909821 219.83985138 -83.27082825 218.90614319 C-82.02402343 215.36134758 -80.77709057 211.81659902 -79.52798462 208.27261353 C-74.86901103 195.03487087 -70.58350173 181.71232618 -66.44161987 168.30511475 C-61.49135802 152.35368978 -55.79362433 136.70874217 -50.02148438 121.0390625 C-42.31044061 100.09620563 -35.32435267 79.04840345 -28.90283203 57.67724609 C-28.27473572 55.58811941 -27.64632197 53.49908814 -27.01757812 51.41015625 C-26.56079681 49.89246643 -26.56079681 49.89246643 -26.0947876 48.34411621 C-22.92219861 37.87349623 -19.45565386 27.50877459 -15.89648438 17.1640625 C-15.61627441 16.34635376 -15.33606445 15.52864502 -15.04736328 14.68615723 C-14.27381728 12.43367154 -13.4950422 10.18310402 -12.71289062 7.93359375 C-12.48457047 7.27287369 -12.25625031 6.61215363 -12.02101135 5.93141174 C-9.60503004 -0.9396547 -6.83761675 0.14588034 0 0 Z " fill="#A7CE44" transform="translate(365.333984375,195.6484375)"/>
<path d="M0 0 C2.73469389 0.12237998 5.46972596 0.22918797 8.20507812 0.33569336 C17.2936917 0.7231987 26.27551483 1.40019334 35.28320312 2.69702148 C36.09493988 2.81020218 36.90667664 2.92338287 37.74301147 3.03999329 C42.69311646 3.81157939 46.95892654 4.88155692 51.36914062 7.31030273 C53.30608979 11.1823974 51.52737053 14.9090054 50.25463867 18.75341797 C50.01725479 19.49699554 49.77987091 20.24057312 49.53529358 21.00668335 C48.74599701 23.46489287 47.94011061 25.91718825 47.13085938 28.36889648 C46.85557718 29.20849474 46.58029499 30.04809299 46.29667091 30.91313362 C44.8384283 35.35797633 43.36719888 39.79827635 41.88549805 44.23535156 C40.36097269 48.80923192 38.88157499 53.39639123 37.41220379 57.98823452 C36.27126072 61.52528328 35.09699548 65.05061533 33.91358376 68.57365608 C33.35373099 70.25955146 32.80637343 71.94965191 32.27210045 73.64382744 C28.09100119 86.8410279 28.09100119 86.8410279 23.8656311 90.44656372 C21.35520931 91.74237749 19.10319753 92.62519019 16.36914062 93.31030273 C15.66448669 93.50332474 14.95983276 93.69634674 14.23382568 93.8952179 C11.69299536 94.46081483 9.27920156 94.44017596 6.67773438 94.44311523 C5.56720703 94.4444043 4.45667969 94.44569336 3.3125 94.44702148 C2.15556641 94.4431543 0.99863281 94.43928711 -0.19335938 94.43530273 C-1.8881543 94.44110352 -1.8881543 94.44110352 -3.6171875 94.44702148 C-9.85900079 94.4398346 -15.98478679 94.17526179 -22.1940918 93.54614258 C-36.3214961 92.17883744 -50.46313159 93.47147811 -62.63085938 101.31030273 C-66.13548385 104.47301263 -67.38638475 107.34687511 -67.71289062 112.10327148 C-67.14181781 127.46784953 -54.46984958 142.17570427 -46.31835938 154.49780273 C-22.151064 191.0405563 -2.25000389 229.38898674 -10.60742188 274.52905273 C-15.85929902 300.23725135 -29.62395439 323.47181777 -47.63085938 342.31030273 C-48.32566406 343.07987305 -49.02046875 343.84944336 -49.73632812 344.64233398 C-61.20680395 356.90675895 -76.85817192 363.78224266 -92.69335938 368.56030273 C-93.47646484 368.8066748 -94.25957031 369.05304688 -95.06640625 369.30688477 C-111.29574757 373.94063711 -129.12585839 373.7789 -145.88085938 374.43530273 C-146.91659088 374.47699585 -147.95232239 374.51868896 -149.0194397 374.56164551 C-167.91039916 375.30025387 -186.79567844 375.52732793 -205.69883728 375.55617523 C-207.79920012 375.56026542 -209.89952758 375.56777074 -211.99987793 375.57598877 C-240.32288534 375.67313234 -240.32288534 375.67313234 -252.63085938 373.31030273 C-253.74738112 369.96073751 -253.55326587 369.34730562 -252.45019531 366.1472168 C-252.02225929 364.88461784 -252.02225929 364.88461784 -251.5856781 363.59651184 C-251.10530846 362.22507271 -251.10530846 362.22507271 -250.61523438 360.82592773 C-250.12477379 359.39182808 -250.12477379 359.39182808 -249.62440491 357.92875671 C-248.55247668 354.80266601 -247.46729292 351.6813792 -246.38085938 348.56030273 C-245.64169336 346.42057517 -244.90300681 344.28068192 -244.16479492 342.140625 C-242.68753668 337.86401195 -241.20413766 333.58959667 -239.71630859 329.31665039 C-238.1479892 324.8089269 -236.5980379 320.29541169 -235.06259155 315.77639771 C-234.08856837 312.91473509 -233.10381742 310.0568617 -232.11560059 307.20007324 C-231.45965228 305.29511933 -230.81512569 303.38624459 -230.17089844 301.47729492 C-227.66521635 294.31675637 -225.50111515 288.95340424 -219.06835938 284.56030273 C-209.53007932 281.09183726 -199.60399499 281.05011628 -189.57226562 281.18530273 C-187.57576854 281.19687873 -185.57927131 281.20844266 -183.58277035 281.21932983 C-179.42219034 281.24533646 -175.26176942 281.28978519 -171.10131836 281.33105469 C-167.66195246 281.3644505 -164.22266738 281.39360757 -160.78318787 281.41235352 C-158.22082819 281.42719959 -155.65849802 281.45101135 -153.09632874 281.4855957 C-142.1997546 281.54652205 -131.03223224 281.34137212 -121.63085938 275.31030273 C-119.03387182 271.08911226 -118.69700201 267.11019897 -119.63085938 262.31030273 C-124.91626563 248.54469035 -133.73727158 237.84343361 -143.37670898 226.91113281 C-172.63304089 193.67387038 -195.01845437 152.69172307 -192.63085938 107.31030273 C-190.50064633 84.44029734 -181.0746553 62.30432818 -165.63085938 45.31030273 C-165.09460938 44.63354492 -164.55835938 43.95678711 -164.00585938 43.25952148 C-142.01742728 15.82895245 -101.9635103 5.0804315 -68.63085938 1.31030273 C-45.71643598 -0.80390256 -22.97270273 -1.04998187 0 0 Z " fill="#A7CE44" transform="translate(1106.630859375,171.689697265625)"/>
<path d="M0 0 C1.32168686 -0.01058945 1.32168686 -0.01058945 2.67007446 -0.02139282 C40.17055889 -0.25376136 78.67115734 1.90883195 107.84375 28.43359375 C120.77536974 41.56314644 126.0917151 59.6451573 126.578125 77.703125 C125.90023272 117.94527564 107.35824486 156.1824828 81.390625 186.203125 C80.73191406 186.97269531 80.07320312 187.74226562 79.39453125 188.53515625 C68.67769006 200.75113969 57.22721284 212.24202434 44.14257812 221.90429688 C42.34046729 223.24030993 40.56041462 224.60236686 38.78125 225.96875 C31.62105917 231.40886319 24.2643613 236.15808366 16.47021484 240.63818359 C1.9302232 248.41472958 1.9302232 248.41472958 -7.17333984 261.30566406 C-7.38917725 262.24490723 -7.38917725 262.24490723 -7.609375 263.203125 C-6.74851036 263.45679588 -6.74851036 263.45679588 -5.87025452 263.71559143 C4.87218816 266.90688829 15.51526231 270.40325765 26.16137695 273.90014648 C28.70349409 274.73180556 31.24655974 275.55830119 33.79321289 276.37573242 C37.47810455 277.56175887 41.15552265 278.76874379 44.83203125 279.98046875 C45.9766835 280.34414047 47.12133575 280.70781219 48.30067444 281.08250427 C49.87382668 281.60808678 49.87382668 281.60808678 51.47875977 282.14428711 C52.4056813 282.44612411 53.33260284 282.74796112 54.28761292 283.0589447 C56.390625 284.203125 56.390625 284.203125 57.29159546 286.02215576 C57.41548044 288.75052689 56.82553025 290.59033228 55.88696289 293.1574707 C55.35499046 294.63731194 55.35499046 294.63731194 54.81227112 296.14704895 C54.41660446 297.21356186 54.02093781 298.28007477 53.61328125 299.37890625 C53.20911484 300.49508835 52.80494843 301.61127045 52.38853455 302.76127625 C51.08681774 306.34982277 49.77045568 309.93278434 48.453125 313.515625 C47.17576138 317.01898079 45.9014543 320.5234369 44.62753296 324.02804565 C43.78628339 326.34092861 42.94337339 328.65320831 42.0987854 330.96487427 C38.90393429 339.72501006 35.8171421 348.51934448 32.81105042 357.34602356 C32.50529587 358.23754623 32.19954132 359.12906891 31.88452148 360.04760742 C31.48571022 361.22077766 31.48571022 361.22077766 31.07884216 362.41764832 C30.390625 364.203125 30.390625 364.203125 29.390625 365.203125 C-7.95992208 368.71529218 -45.10043112 343.39999696 -72.609375 321.203125 C-73.51300781 320.47996094 -74.41664063 319.75679688 -75.34765625 319.01171875 C-78.12290129 316.76662182 -80.87104056 314.49309886 -83.609375 312.203125 C-84.16802246 311.73616211 -84.72666992 311.26919922 -85.30224609 310.78808594 C-112.44842905 288.02414667 -112.44842905 288.02414667 -113.609375 275.203125 C-113.03080938 272.4908918 -112.37762507 270.00360885 -111.53564453 267.37768555 C-111.30331116 266.61763718 -111.07097778 265.85758881 -110.831604 265.07450867 C-110.06424429 262.57558247 -109.27852024 260.08285831 -108.4921875 257.58984375 C-107.9540235 255.85235868 -107.41691887 254.11454517 -106.88082886 252.37641907 C-105.75699001 248.74186655 -104.62482355 245.11005913 -103.48583984 241.48022461 C-102.023051 236.81829942 -100.57435188 232.15215554 -99.13095284 227.48419476 C-97.75589154 223.0388355 -96.37450931 218.59544972 -94.9921875 214.15234375 C-94.72758854 213.30041632 -94.46298958 212.44848888 -94.19037247 211.57074547 C-93.44434527 209.17325997 -92.69390674 206.77720572 -91.94189453 204.3815918 C-91.71950104 203.66525574 -91.49710754 202.94891968 -91.26797485 202.21087646 C-89.72430921 197.31805921 -89.72430921 197.31805921 -88.609375 196.203125 C-86.15586949 196.15155268 -83.72939741 196.16149976 -81.27734375 196.2109375 C-79.74024139 196.22848994 -78.20313152 196.24539462 -76.66601562 196.26171875 C-74.24823966 196.2923697 -71.83084538 196.32746389 -69.41333008 196.37451172 C-48.24077441 196.76493075 -33.71605991 191.17647416 -17.609375 177.203125 C-16.78953125 176.52765625 -15.9696875 175.8521875 -15.125 175.15625 C1.04899173 161.3932881 12.83142483 141.35686357 15.265625 120.078125 C15.7852252 109.95258273 13.92774202 101.18013563 7.390625 93.203125 C0.29213061 87.17930307 -7.24936681 85.88008181 -16.296875 86.015625 C-17.18955078 86.02207031 -18.08222656 86.02851563 -19.00195312 86.03515625 C-24.40051625 86.0980674 -29.71786911 86.38387356 -35.0859375 86.9765625 C-41.68153547 87.56873693 -48.12901415 87.57091443 -54.609375 86.203125 C-52.38803228 76.76063887 -49.63902226 67.51733454 -46.7578125 58.26171875 C-46.29339638 56.76156458 -45.82925972 55.26132386 -45.36538696 53.76100159 C-44.15543569 49.85036761 -42.94156434 45.94096147 -41.72686768 42.03179932 C-40.48722552 38.03957074 -39.25169287 34.04607072 -38.015625 30.05273438 C-36.21337157 24.23303866 -34.41015388 18.41364355 -32.60302734 12.59545898 C-32.24123383 11.43030258 -31.87944031 10.26514618 -31.50668335 9.06468201 C-30.89221219 7.10510563 -30.25879893 5.15139679 -29.609375 3.203125 C-28.15250897 2.88385436 -26.69375149 2.57321666 -25.234375 2.265625 C-24.42226563 2.09160156 -23.61015625 1.91757813 -22.7734375 1.73828125 C-15.21429565 0.45975973 -7.65650672 0.04113416 0 0 Z " fill="#A7CE44" transform="translate(784.609375,183.796875)"/>
<path d="M0 0 C1.94926541 -0.00646276 3.89852995 -0.01319335 5.84779358 -0.02017212 C9.91442092 -0.03204828 13.98096401 -0.03586369 18.04760742 -0.03466797 C22.13405283 -0.03450661 26.22004424 -0.04822144 30.30639648 -0.07568359 C56.27054618 -0.24741311 81.56251373 0.71508662 107.28515625 4.3359375 C109.17697574 4.59020165 111.06881795 4.8442968 112.96069336 5.09814453 C117.24794443 5.69189687 121.51741471 6.36630376 125.78515625 7.0859375 C126.52456451 7.20810638 127.26397278 7.33027527 128.02578735 7.45614624 C169.26641157 14.30389307 209.60029307 25.32244573 249.28515625 38.3359375 C251.11361084 38.93245117 251.11361084 38.93245117 252.97900391 39.54101562 C287.9212128 51.02168023 321.8512666 65.06127425 355.28515625 80.3359375 C357.45424064 81.3220248 359.6234886 82.30775245 361.79296875 83.29296875 C363.29039926 83.97388207 364.78781044 84.65483794 366.28515625 85.3359375 C362.81873053 86.49141274 362.08574798 86.16860221 358.74584961 84.98754883 C357.81891296 84.66538895 356.89197632 84.34322906 355.93695068 84.01130676 C354.92650696 83.65050522 353.91606323 83.28970367 352.875 82.91796875 C350.68721461 82.15590107 348.49930216 81.39419808 346.3112793 80.6328125 C345.15606781 80.22740234 344.00085632 79.82199219 342.81063843 79.40429688 C318.20222894 70.79090354 293.48382019 63.01798589 268.28515625 56.3359375 C267.02245911 56.00042877 267.02245911 56.00042877 265.73425293 55.65814209 C223.31752699 44.42116864 180.40175607 36.02208298 136.78515625 31.0859375 C136.11638458 31.00880524 135.44761292 30.93167297 134.75857544 30.85220337 C110.46025195 28.08795795 86.14232535 26.99705677 61.69848633 27.07519531 C57.72006034 27.08594451 53.74208468 27.07519732 49.76367188 27.0625 C25.80590644 27.04822303 1.97801462 28.3675494 -21.77734375 31.5234375 C-22.58059082 31.62820404 -23.38383789 31.73297058 -24.21142578 31.84091187 C-116.78758057 44.01575793 -203.37580572 78.67046533 -313.88867188 158.81396484 C-316.3873174 160.89639215 -318.92751294 162.92593952 -321.46484375 164.9609375 C-326.13079373 168.76755727 -330.55968118 172.79493251 -334.95019531 176.91259766 C-337.72018378 179.50979414 -340.52516866 182.04429905 -343.40527344 184.51928711 C-347.74609798 188.31097363 -351.83779431 192.31434964 -355.90625 196.39453125 C-357.02966042 197.51650658 -357.02966042 197.51650658 -358.17576599 198.66114807 C-359.747556 200.23226214 -361.31810224 201.80462142 -362.88745117 203.37817383 C-365.27085679 205.76693596 -367.65955443 208.15031196 -370.04882812 210.53320312 C-371.58495612 212.069992 -373.12077384 213.6070911 -374.65625 215.14453125 C-375.36060684 215.84686386 -376.06496368 216.54919647 -376.79066467 217.27281189 C-381.29786362 221.80107833 -385.55155866 226.49118692 -389.71484375 231.3359375 C-391.29361246 233.11084158 -392.87621383 234.88235423 -394.46484375 236.6484375 C-395.57085938 237.88013672 -395.57085938 237.88013672 -396.69921875 239.13671875 C-398.33188402 240.91809578 -399.9876945 242.64704788 -401.71484375 244.3359375 C-400.80961726 239.98577211 -398.55100837 236.85529959 -396.02734375 233.2734375 C-395.54185059 232.57734375 -395.05635742 231.88125 -394.55615234 231.1640625 C-384.90606002 217.40864865 -374.86995231 204.01833408 -364.15185547 191.07714844 C-362.06981243 188.5543603 -360.0207758 186.0050198 -357.96484375 183.4609375 C-354.374355 179.07475436 -350.63645654 174.84678339 -346.8203125 170.65625 C-344.9856669 168.63439566 -343.18715589 166.58915228 -341.40234375 164.5234375 C-333.39329031 155.36763323 -325.05107105 146.57630058 -316.46484375 137.9609375 C-315.72065186 137.21215332 -314.97645996 136.46336914 -314.2097168 135.69189453 C-310.09549159 131.58909392 -305.88988604 127.65605824 -301.48779297 123.86376953 C-299.25350125 121.93837741 -297.0791256 119.9509202 -294.90234375 117.9609375 C-289.65063418 113.23360437 -284.24216968 108.7359904 -278.71484375 104.3359375 C-278.08078613 103.82933594 -277.44672852 103.32273437 -276.79345703 102.80078125 C-254.4692002 85.02123662 -230.9156392 69.09580649 -205.81835938 55.47802734 C-204.35592459 54.68400808 -202.89649422 53.88444037 -201.43945312 53.08056641 C-156.20644063 28.18766364 -106.10136132 12.5937184 -55.21484375 4.5859375 C-53.9525293 4.38718018 -52.69021484 4.18842285 -51.38964844 3.98364258 C-34.2347767 1.39085197 -17.35106173 0.01389151 0 0 Z " fill="#FCFCFC" transform="translate(925.71484375,-0.3359375)"/>
<path d="M0 0 C0.66 0 1.32 0 2 0 C2 0.66 2 1.32 2 2 C1.34 2 0.68 2 0 2 C0 1.34 0 0.68 0 0 Z " fill="#000000" transform="translate(168,169)"/>
</svg>
